<svg xmlns="http://www.w3.org/2000/svg" xmlns:xlink="http://www.w3.org/1999/xlink" version="1.1" x="0px" y="0px" viewBox="0 0 32 40" style="enable-background:new 0 0 32 32;" xml:space="preserve"><path d="M29.367,26.807l-0.241-0.041c-0.233-0.042-0.467-0.08-0.698-0.082c-0.647-0.006-1.42-0.042-1.652-0.28  c-0.229-0.232-0.252-0.981-0.245-1.606c0.004-0.414-0.328-0.754-0.742-0.758c-0.003,0-0.006,0-0.008,0  c-0.099,0-0.192,0.021-0.279,0.056c-0.008-3.644-0.034-8.529-0.09-9.858c-0.135-3.251-0.74-6.885-4.211-9.179  c-1.755-1.16-3.996-1.58-6.233-1.235C11.204,3.216,6.42,4.929,4.871,9.338c-0.586,1.668-0.875,3.438-0.881,5.41  c-0.005,1.887,0.082,4.275,0.173,6.803c0.057,1.572,0.114,3.164,0.15,4.663c-0.898-0.012-1.613-0.001-2.04,0.454  c-0.204,0.216-0.303,0.502-0.279,0.805c0.03,0.394,0.358,0.692,0.747,0.692c0.02,0,0.039-0.001,0.058-0.002  c0.279-0.021,0.51-0.192,0.622-0.429c0.252-0.033,0.706-0.027,1.028-0.02c1.056,0.012,2.145,0.035,2.682-0.646  c0.096-0.121,0.183-0.173,0.235-0.192c1.541,1.756,3.018,0.624,3.908-0.057l0.067-0.052c1.052,1.652,2.74,1.447,4.124,1.281  c0.545-0.066,1.11-0.135,1.636-0.107c0.392,0.021,0.782,0.061,1.173,0.102c0.564,0.058,1.149,0.118,1.742,0.121  c0.673-0.004,1.481-0.07,1.972-0.59c0.534,0.285,1.055,0.431,1.554,0.431c0.702,0,1.356-0.298,1.946-0.857  c0.068,0.104,0.127,0.215,0.216,0.305c0.582,0.593,1.469,0.719,2.712,0.729c0.147,0.001,0.296,0.031,0.444,0.059  c0.098,0.018,0.196,0.035,0.294,0.049c0.036,0.006,0.072,0.008,0.107,0.008c0.367,0,0.688-0.27,0.741-0.644  C30.062,27.246,29.777,26.866,29.367,26.807z M6.981,14.747c-0.005,1.854,0.08,4.049,0.169,6.373  c0.054,1.411,0.105,2.847,0.141,4.262c-0.497,0.037-0.979,0.303-1.305,0.724c-0.037,0.024-0.101,0.042-0.175,0.058  c-0.036-1.501-0.093-3.093-0.15-4.665c-0.091-2.514-0.178-4.887-0.172-6.745c0.006-1.801,0.267-3.41,0.796-4.917  c0.703-1.998,2.306-3.357,4.148-4.063C9.252,6.72,8.355,7.936,7.863,9.337C7.277,11.003,6.988,12.773,6.981,14.747z M22.331,26.029  c-0.065-0.324-0.179-0.643-0.299-0.929c-0.16-0.383-0.6-0.562-0.981-0.403c-0.382,0.16-0.562,0.6-0.403,0.981  c0.272,0.651,0.243,0.865,0.256,0.868c-0.026,0.018-0.223,0.133-0.88,0.119c-0.521-0.003-1.043-0.057-1.596-0.113  c-0.416-0.043-0.832-0.086-1.25-0.107c-0.656-0.034-1.286,0.042-1.894,0.116c-1.603,0.193-2.334,0.23-2.864-0.944  c-0.144-0.327-0.432-0.441-0.545-0.482c-0.233-0.129-0.519-0.125-0.748,0.013l-0.185,0.105c-0.175,0.098-0.344,0.194-0.495,0.312  l-0.086,0.065c-0.83,0.635-1.165,0.831-1.546,0.565c-0.034-1.686-0.101-3.432-0.166-5.131c-0.088-2.308-0.172-4.487-0.167-6.31  c0.006-1.803,0.267-3.412,0.797-4.918c0.68-1.935,2.312-3.463,4.479-4.191c2.292-0.771,4.827-0.515,6.614,0.667  c2.344,1.549,3.369,3.864,3.541,7.991c0.067,1.602,0.09,8.774,0.092,12.098C23.522,26.619,22.994,26.491,22.331,26.029z"/><path d="M14.28,14.927c-0.188-0.311-0.443-0.73-0.893-1c0.248-0.259,0.417-0.565,0.491-0.896c0.168-0.75-0.233-1.537-0.914-1.79  c-0.27-0.1-0.527-0.1-0.717-0.1l-1.489,0.004c-0.414,0.001-0.75,0.337-0.749,0.751c0,0.113,0.03,0.218,0.075,0.314  c-0.056,1.446-0.034,2.904,0.082,4.342c0.032,0.393,0.36,0.689,0.747,0.689c0.021,0,0.041-0.001,0.062-0.002  c0.413-0.034,0.721-0.396,0.687-0.808c-0.034-0.415-0.042-0.834-0.061-1.252c0.121-0.002,0.242-0.005,0.354-0.011  c0.269-0.016,0.521-0.031,0.651,0.04c0.134,0.072,0.276,0.308,0.391,0.497l0.676,1.114c0.141,0.232,0.388,0.361,0.642,0.361  c0.133,0,0.267-0.035,0.389-0.109c0.354-0.215,0.467-0.676,0.252-1.03L14.28,14.927z M12.088,13.053  c-0.147,0.084-0.329,0.145-0.52,0.202c0.002-0.204,0.004-0.408,0.01-0.613l0.671-0.002c0.067,0,0.169,0,0.166,0.062  C12.389,12.818,12.261,12.955,12.088,13.053z"/><path d="M17.353,11.862c0.019-0.414-0.302-0.764-0.716-0.783c-0.405-0.023-0.764,0.302-0.783,0.716  c-0.066,1.496-0.042,3.007,0.071,4.494c0.03,0.394,0.359,0.693,0.747,0.693c0.02,0,0.039,0,0.058-0.002  c0.413-0.032,0.723-0.392,0.69-0.805C17.312,14.748,17.289,13.297,17.353,11.862z"/><path d="M19.024,11.015c-0.363,0.058-0.632,0.372-0.632,0.741v4.853c0,0.414,0.336,0.75,0.75,0.75s0.75-0.336,0.75-0.75v-1.25  c1.013-0.005,1.816-0.387,2.251-1.088c0.417-0.673,0.396-1.513-0.057-2.192C21.504,11.201,20.364,10.804,19.024,11.015z   M20.868,13.48c-0.15,0.242-0.503,0.375-0.976,0.378v-1.395c0.437,0.03,0.772,0.184,0.945,0.444  C20.963,13.095,20.974,13.309,20.868,13.48z"/><text x="0" y="47" fill="#000000" font-size="5px" font-weight="bold" font-family="'Helvetica Neue', Helvetica, Arial-Unicode, Arial, Sans-serif">Created by Valerie Lamm</text><text x="0" y="52" fill="#000000" font-size="5px" font-weight="bold" font-family="'Helvetica Neue', Helvetica, Arial-Unicode, Arial, Sans-serif">from the Noun Project</text></svg>